<?xml version="1.0" standalone="no"?>
<!DOCTYPE svg PUBLIC "-//W3C//DTD SVG 20010904//EN" "http://www.w3.org/TR/2001/REC-SVG-20010904/DTD/svg10.dtd">
<!-- Created using Karbon, part of Calligra: http://www.calligra.org/karbon -->
<svg xmlns="http://www.w3.org/2000/svg" xmlns:xlink="http://www.w3.org/1999/xlink" width="45.3544pt" height="56.693pt">
<defs/>
<g id="layer0">
  <path id="shape0" transform="translate(2.58054, 2.81513)" fill="none" stroke="#000000" stroke-width="1.41732529000" d="M0 0.703783C49.9686 0 49.734 0 49.734 0C49.734 0 51.8454 66.1556 51.8454 66.1556C51.8454 66.1556 2.81513 66.1556 2.58054 66.1556C2.34594 66.1556 0.469189 0.469189 0 0.703783Z"/>
  <path id="shape1" transform="translate(19.6055, 19.9085)" fill="none" stroke="#000000" stroke-width="1.41732529000" d="M3.85391 0.032075C7.11024 -1.09014 22.6229 27.5963 18.3988 29.3564C14.1746 31.1164 4.32309 33.8137 2.91553 34.0483C-1.22667 37.5987 -0.99148 4.45337 3.85391 0.032075Z"/>
  <path id="shape2" transform="translate(10.0876, 8.16222)" fill="none" stroke="#000000" stroke-width="0.70866264500" d="M0 0.0485861C0 0.283181 10.5567 0.0485861 10.5567 0.283181C10.5567 0.517775 0.234594 -0.186008 0 0.0485861Z"/>
  <path id="shape3" transform="translate(32.1365, 8.19378)" fill="none" stroke="#000000" stroke-width="0.70866264500" d="M0.00290018 0.0170259C-0.231694 0.25162 13.844 0.486215 13.844 0.486215C13.844 0.486215 14.0786 8.46243 14.0786 8.69702C14.0786 8.93161 0.472089 8.93161 0.237495 8.93161C0.00290018 8.93161 0.00290018 -0.452163 0.00290018 0.0170259Z"/>
  <path id="shape4" transform="translate(11.7236, 16.2603)" fill="none" stroke="#000000" stroke-width="0.70866264500" d="M0.00613744 0.395878C0.00613744 0.395878 6.34019 -0.307905 6.34019 0.161284C6.34019 0.630473 -0.228457 0.630473 0.00613744 0.395878Z"/>
  <path id="shape5" transform="translate(26.9784, 23.0489)" fill="none" stroke="#000000" stroke-width="0.70866264500" d="M0 0.175946C0.234594 -0.0586486 18.533 -0.0586486 18.2984 0.175946C18.0638 0.41054 0.234594 0.175946 0 0.175946Z"/>
  <path id="shape6" transform="translate(13.1373, 22.6514)" fill="none" stroke="#000000" stroke-width="0.70866264500" d="M8.4454 0.104264C8.21081 0.573453 0 0.104264 0 0.104264C0 0.104264 8.91459 -0.13033 8.4454 0.104264Z"/>
  <path id="shape7" transform="translate(13.3719, 29.8196)" fill="none" stroke="#000000" stroke-width="0.70866264500" d="M7.03783 0.208528C7.03783 0.443123 0 0.208528 0 0.208528C0 0.208528 7.50702 -0.26066 7.03783 0.208528Z"/>
  <path id="shape8" transform="translate(31.6702, 29.4256)" fill="none" stroke="#000000" stroke-width="0.70866264500" d="M0 0.133324C0.234594 0.133324 15.014 0.133324 14.7794 0.367919C14.5449 0.602513 0.234594 -0.335865 0 0.133324Z"/>
  <path id="shape9" transform="translate(34.4822, 33.4984)" fill="none" stroke="#000000" stroke-width="0.70866264500" d="M0.00316085 0.0485861C-0.231434 0.0485861 12.6713 0.0485861 12.4367 0.283181C12.2021 0.517775 0.00316085 -0.186008 0.00316085 0.0485861Z"/>
  <path id="shape10" transform="translate(13.3719, 38.6404)" fill="none" stroke="#000000" stroke-width="0.70866264500" d="M6.09946 0.0677216C5.86486 0.302316 0 -0.166873 0 0.0677216C0 0.302316 6.09946 -0.166873 6.09946 0.0677216Z"/>
  <path id="shape11" transform="translate(36.8313, 38.7081)" fill="none" stroke="#000000" stroke-width="0.70866264500" d="M0 0C0.234594 0.234594 6.56864 0 6.33405 0C6.09946 0 0.234594 0 0 0Z"/>
  <path id="shape12" transform="translate(43.8692, 40.7879)" fill="none" stroke="#000000" stroke-width="0.70866264500" d="M0 0.0315055C0 0.0315055 3.51892 0.2661 3.51892 0.2661C3.51892 0.2661 3.28432 4.95799 3.28432 4.95799C3.28432 4.95799 0.234594 4.4888 0.234594 4.4888C0.234594 4.4888 0 -0.437683 0 0.0315055Z"/>
  <path id="shape13" transform="translate(39.3887, 46.6843)" fill="none" stroke="#000000" stroke-width="0.70866264500" d="M0.0231988 0C0.0231988 0 6.35725 0 6.35725 0C6.35725 0 -0.44599 0.469189 0.0231988 0Z"/>
  <path id="shape14" transform="translate(13.3657, 46.58)" fill="none" stroke="#000000" stroke-width="0.70866264500" d="M5.63641 0.104264C5.40181 0.338859 0.240736 0.104264 0.00614124 0.104264C-0.228453 0.104264 6.34019 -0.13033 5.63641 0.104264Z"/>
  <path id="shape15" transform="translate(17.5946, 55.7955)" fill="none" stroke="#000000" stroke-width="0.70866264500" d="M0 0.507169C0 0.741763 28.3859 -0.196615 28.1513 0.0379797C27.9167 0.272574 0.234594 0.741763 0 0.507169Z"/>
  <path id="shape16" transform="translate(14.301, 61.4637)" fill="none" stroke="#000000" stroke-width="0.70866264500" d="M0.00921916 0C0.00921916 0.234594 17.6038 0 17.3692 0C17.1346 0 -0.45997 0 0.00921916 0Z"/>
  <path id="shape17" transform="translate(35.0299, 57.9954)" fill="#000000" d="M2.66128 0.578835C2.61991 0.578835 2.5608 0.578835 2.48397 0.578835L3.10897 1.66137C3.01185 0.713084 0.0141013 2.28051 0.726658 2.94345L0.101658 1.86092C0.392384 1.89652 0.829521 1.37616 0.703876 1.09268L1.32888 2.17521C0.785123 1.67505 0.575204 3.0644 0.755203 3.4201L0.130203 2.33757C0.506271 2.87903 1.94738 2.06105 1.78434 1.43812L2.40934 2.52065C2.12587 2.37581 2.18657 3.4257 2.28277 3.57172L1.65777 2.48919C2.02261 2.9053 3.16746 2.09453 2.79394 1.67806L3.41894 2.76059C3.04526 2.51499 2.89918 3.35165 2.9806 3.54726L2.3556 2.46473C2.96653 3.05494 4.00326 1.74369 4.01972 1.83956C4.23885 2.21858 4.46965 2.59277 4.6758 2.97893L4.0508 1.8964C4.30757 2.20724 5.21609 1.65086 5.15228 1.31446L5.77728 2.39699C5.54416 2.25527 5.30666 3.20288 5.46153 3.4332L4.83653 2.35067C5.41923 2.86996 6.87037 1.33968 6.65543 0.695873L7.28043 1.7784C7.28127 1.93853 7.29217 2.07467 7.37857 2.21222L6.75357 1.12969C7.21123 1.51721 8.46543 0.512471 8.47534 0.547499C8.68419 0.912111 8.86092 1.35088 9.13171 1.6666L8.50671 0.584064C8.76173 0.629669 8.9345 0.348572 8.74039 0.163069L9.36539 1.2456C8.55969 0.75388 8.0304 1.68957 7.5578 2.19676L6.9328 1.11423C7.40863 0.603577 7.94103 -0.324785 8.74039 0.163069L9.36539 1.2456C9.55787 1.42955 9.38597 1.71814 9.13171 1.6666L8.50671 0.584064C8.25808 0.269579 8.89861 1.28359 9.10034 1.63003C9.09043 1.595 7.83623 2.59974 7.37857 2.21222L6.75357 1.12969C6.65534 0.981635 6.66985 0.892581 6.65543 0.695873L7.28043 1.7784C7.4849 2.39075 6.04064 3.9493 5.46153 3.4332L4.83653 2.35067C4.68946 2.13196 4.91664 1.17122 5.15228 1.31446L5.77728 2.39699C5.8703 2.71033 4.92604 3.28187 4.6758 2.97893L4.0508 1.8964C3.85921 1.55088 4.4474 2.57981 4.64472 2.92209C4.63566 2.86929 3.58708 4.13025 2.9806 3.54726L2.3556 2.46473C2.24335 2.19842 2.45306 1.45835 2.79394 1.67806L3.41894 2.76059C3.80213 3.17573 2.65116 3.99189 2.28277 3.57172L1.65777 2.48919C1.58993 2.38736 1.49109 1.29167 1.78434 1.43812L2.40934 2.52065C2.5688 3.11757 1.14317 3.9787 0.755203 3.4201L0.130203 2.33757C-0.0389599 2.00868 0.158772 0.585961 0.703876 1.09268L1.32888 2.17521C1.453 2.45527 1.02259 2.97969 0.726658 2.94345L0.101658 1.86092C-0.515132 1.28708 2.37447 -0.490411 2.48397 0.578835L3.10897 1.66137C3.1858 1.66137 3.24491 1.66137 3.28628 1.66137C3.07795 1.30052 2.86961 0.939679 2.66128 0.578835Z"/>
  <path id="shape18" transform="translate(42.382, 59.8313)" fill="#000000" d="M0.0023027 2.7333C0.0023027 1.90056 3.2884 0.568948 3.5925 0L4.2175 1.08253C3.83857 1.79149 0.627303 2.90654 0.627303 3.81583C0.418969 3.45499 0.210636 3.09414 0.0023027 2.7333Z"/>
  <path id="shape19" transform="translate(35.1403, 62.5636)" fill="#000000" d="M0.834579 1.08525C0.479207 1.08525 0.717579 1.21972 0.924061 1.27654L0.299061 0.194012C1.85782 0.355189 3.72801 -0.233329 5.17597 0.0998664C5.58202 0.193306 6.16256 0.975376 5.80097 1.1824C4.66644 1.83194 2.30395 1.41898 0.924061 1.27654L0.299061 0.194012C0.106685 0.141422 -0.156506 0.00271626 0.209579 0.00271626Z"/>
  <path id="shape20" transform="translate(23.3119, 26.434)" fill="#000000" d="M1.94769 1.45032e-08C1.90632 1.11191e-08 1.84722 6.28471e-09 1.77038 0L2.39538 1.08253C2.35621 1.51764 0.146881 1.18796 0.69431 2.30226L0.0693099 1.21973C0.976057 2.17341 1.73921 0.490725 1.4217 0.34144C1.56031 0.572173 2.03373 1.42731 1.97682 1.38158L1.35182 0.299048L1.97682 1.38158L1.35182 0.299048C1.65314 0.40303 1.88085 1.12597 2.0467 1.42397C2.43345 1.60581 1.55921 3.21192 0.69431 2.30226L0.0693099 1.21973C-0.430879 0.20158 1.73534 0.389252 1.77038 0L2.39538 1.08253C2.47222 1.08253 2.53132 1.08253 2.57269 1.08253C2.36436 0.721688 2.15603 0.360844 1.94769 1.45032e-08Z"/>
  <path id="shape21" transform="translate(28.6646, 31.8893)" fill="#000000" d="M0.578132 0.178362C0.578132 0.124118 0.578132 -0.0386149 0.578132 0.0156294L1.20313 1.09816C0.827067 1.3541 0.367084 1.93026 0.776577 2.34913L0.151577 1.2666C0.53518 1.47555 1.10888 1.04572 0.890091 0.631452L1.51509 1.71398C1.73226 2.12519 1.15884 2.55736 0.776577 2.34913L0.151577 1.2666C-0.259631 0.845979 0.208208 0.268385 0.578132 0.0156294L1.20313 1.09816C1.20313 1.07329 1.20313 1.23133 1.20313 1.26089C0.994798 0.90005 0.786465 0.539206 0.578132 0.178362Z"/>
  <path id="shape22" transform="translate(30.5423, 37.5577)" fill="#000000" d="M1.04697 0.139727C1.0609 0.0794839 1.01449 0.0491043 0.96862 0.0173723L1.59362 1.0999C1.02415 0.758732 0.401966 2.15117 0.776561 2.54342L0.151561 1.46088C0.467557 1.6709 1.42354 0.942159 1.20782 0.589815L1.83282 1.67235C1.78439 1.64445 1.70495 1.61711 1.67726 1.5667L1.05226 0.484165L1.67726 1.5667L1.05226 0.484165C1.08066 0.534407 1.15903 0.561647 1.20782 0.589815L1.83282 1.67235C2.06067 2.04097 1.1132 2.76714 0.776561 2.54342L0.151561 1.46088C-0.214568 1.08399 0.359532 -0.335432 0.96862 0.0173723L1.59362 1.0999C1.63867 1.13106 1.68706 1.16207 1.67197 1.22226Z"/>
  <path id="shape23" transform="translate(32.731, 43.1735)" fill="#000000" d="M1.20746 0.154465C1.21359 0.0931601 1.21249 0.0639097 1.15585 0.0321097L1.78085 1.11464C1.16603 0.802001 0.451915 2.02323 0.740252 2.46515L0.115252 1.38262C0.737905 1.85254 1.38438 1.07921 1.03872 0.505267L1.66372 1.5878C2.01123 2.16269 1.34933 2.92483 0.740252 2.46515L0.115252 1.38262C-0.174611 0.938358 0.538754 -0.281687 1.15585 0.0321097L1.78085 1.11464C1.83845 1.14576 1.83869 1.17471 1.83246 1.237C1.62413 0.876153 1.41579 0.515309 1.20746 0.154465Z"/>
  <path id="shape24" transform="translate(28.2668, 45.7519)" fill="#000000" d="M0.51318 0.39106L0.51318 0.367601C0.49036 0.286414 0.844907 0.0977809 0.666965 0L1.29196 1.08253C0.936897 1.17506 0.435956 1.64257 0.658694 2.03625L0.0336945 0.953723C0.28649 1.30602 0.894212 0.714698 0.670312 0.371571L1.29531 1.4541C1.26246 1.38626 1.15928 1.39408 1.12788 1.33165L0.502876 0.249116L1.12788 1.33165L0.502876 0.249116C0.535206 0.311223 0.637373 0.303547 0.670312 0.371571L1.29531 1.4541C1.52341 1.80366 0.90983 2.38623 0.658694 2.03625L0.0336945 0.953723C-0.199543 0.54148 0.329811 0.0884887 0.666965 0L1.29196 1.08253C1.45612 1.17274 1.11997 1.38003 1.13818 1.45013L1.13818 1.47359Z"/>
  <path id="shape25" transform="translate(22.6774, 47.0007)" fill="#000000" d="M1.79507 1.16089C1.39344 1.16089 0.111534 1.41553 0.722413 2.23191L0.0974127 1.14938C0.579541 1.45635 1.40842 0.951729 1.09058 0.365033L1.71558 1.44756C1.63867 1.37403 0.955125 1.25253 1.01145 1.5485L0.386449 0.46597L0.417702 0.478615L1.0427 1.56115L1.01145 1.5485L0.386449 0.46597C0.332434 0.266828 0.966436 0.24678 1.09058 0.365033L1.71558 1.44756C2.02473 2.01235 1.22054 2.54907 0.722413 2.23191L0.0974127 1.14938C-0.520979 0.322961 0.843699 0.123531 1.17007 0.0783608C1.3784 0.439205 1.58673 0.800049 1.79507 1.16089Z"/>
  <path id="shape26" transform="translate(22.3671, 40.0642)" fill="#000000" d="M0.786822 0.448346L1.41182 1.53088L0.786822 0.448346C0.769637 0.332123 1.02722 0.0399985 0.940607 0.0285969L1.56561 1.11113C0.98596 1.0123 0.34635 1.67721 0.732878 2.24727L0.107878 1.16473C0.742424 1.65758 1.18289 0.549288 1.06005 0.129807L1.68505 1.21234C1.82713 1.6975 1.38652 2.74147 0.732878 2.24727L0.107878 1.16473C-0.268639 0.609446 0.384351 -0.0662464 0.940607 0.0285969L1.56561 1.11113C1.63071 1.1197 1.3911 1.39575 1.41182 1.53088L0.786822 0.448346L1.41182 1.53088Z"/>
  <path id="shape27" transform="translate(22.2547, 33.7501)" fill="#000000" d="M1.75244 1.27729C1.63506 1.27729 -0.207061 1.30469 0.736664 2.18806L0.111664 1.10552C0.45556 1.37803 0.869259 0.951522 0.586749 0.626852C0.730293 0.868924 1.33787 1.88981 1.1191 1.59697L0.494099 0.514437L0.506638 0.501245L1.13164 1.58378L1.1191 1.59697L0.494099 0.514437C0.809664 0.841379 0.989723 1.31658 1.21175 1.70938C1.50585 2.04933 1.05246 2.4383 0.736664 2.18806L0.111664 1.10552C-0.687188 0.357763 1.02291 0.194761 1.12744 0.194761Z"/>
  <path id="shape28" transform="translate(26.4233, 39.1291)" fill="#000000" d="M0.947318 0.211389C0.953083 0.14699 0.963416 0.0987449 0.895707 0.0717036L1.52071 1.15424C1.33932 1.1152 0.073387 1.3685 0.652066 1.71452L0.0270663 0.631991C0.178412 0.724278 0.586982 0.309797 0.414727 0.267958L1.03973 1.35049C1.00502 1.38069 0.929972 1.41385 0.985829 1.45419L0.36083 0.37166C0.422098 0.451749 0.603194 0.239594 0.423906 0.104279L1.04891 1.18681C0.913941 1.01673 0.634962 1.4525 0.72248 1.47155L0.0974797 0.389022L0.141957 0.374395L0.766957 1.45693L0.72248 1.47155L0.0974797 0.389022C0.0279246 0.373876 0.280987 -0.0726302 0.423906 0.104279L1.04891 1.18681C1.23756 1.32919 1.02858 1.50621 0.985829 1.45419L0.36083 0.37166C0.301376 0.329764 0.376875 0.300864 0.414727 0.267958L1.03973 1.35049C1.21198 1.39233 0.804931 1.80427 0.652066 1.71452L0.0270663 0.631991C-0.404069 0.374187 0.700761 0.029747 0.895707 0.0717036L1.52071 1.15424C1.58993 1.18188 1.57665 1.22839 1.57232 1.29392C1.36398 0.933076 1.15565 0.572233 0.947318 0.211389Z"/>
 </g>
</svg>
